# xmcd
#
# Track frame offsets:
#	150
#	24722
#	63213
#	84596
#	122029
#	148337
#	167207
#	202933
#	223882
#	244111
#	282456
#
# Disc length: 4056 seconds
#
# Revision: 2
# Processed by: cddbd v1.5.2PL0 Copyright (c) Steve Scherf et al.
# Submitted via: EZCDAudioConverter 8.0.2.1
#
DISCID=aa0fd60b
DTITLE=Hương Thủy - Thương Nhớ Cậu Hai
DYEAR=2004
DGENRE=East Asia
TTITLE0=Hương Thủy - Thương Nhớ Cậu Hai
TTITLE1=Hương Thủy, Mạnh Quỳnh - Tân cổ. Phương trời xứ lạ
TTITLE2=Hương Thủy, Tâm Đoan - Hành trình trên đất phù sa
TTITLE3=Hương Thủy - Tân cổ. Ai khổ vì ai
TTITLE4=Hương Thủy - Bẽ bàng bướm đậu mù u
TTITLE5=Hương Thủy - Hồn quê
TTITLE6=Hương Thủy - Vọng cổ. Lấy chồng xa
TTITLE7=Hương Thủy, Quang Lê - Nhà anh nhà em
TTITLE8=Hương Thủy - Nhớ ai buông tiếng thở dài
TTITLE9=Hương Thủy, Mạnh Quỳnh - Tân cổ, Đàn sáo Hậu Giang
TTITLE10=Hương Thủy - Hoài niệm cố hương
EXTD=
EXTT0=
EXTT1=
EXTT2=
EXTT3=
EXTT4=
EXTT5=
EXTT6=
EXTT7=
EXTT8=
EXTT9=
EXTT10=
PLAYORDER=
